<?xml version="1.0" encoding="UTF-8"?>
<svg width="32" height="32" viewBox="0 0 32 32" fill="none" xmlns="http://www.w3.org/2000/svg">
  <!-- Background circle -->
  <circle cx="16" cy="16" r="16" fill="#F59E0B"/>
  
  <!-- Central figure/person -->
  <g fill="#FFFFFF">
    <!-- Head -->
    <circle cx="16" cy="10" r="2.5"/>
    
    <!-- Body -->
    <rect x="14.5" y="12.5" width="3" height="6" rx="1"/>
    
    <!-- Arms -->
    <rect x="11" y="14" width="4" height="1.5" rx="0.75"/>
    <rect x="17" y="14" width="4" height="1.5" rx="0.75"/>
    
    <!-- Legs -->
    <rect x="14" y="18.5" width="1.5" height="4" rx="0.75"/>
    <rect x="16.5" y="18.5" width="1.5" height="4" rx="0.75"/>
  </g>
  
  <!-- Radiating lines -->
  <g stroke="#FFFFFF" stroke-width="1.5" stroke-linecap="round">
    <!-- Top rays -->
    <line x1="16" y1="2" x2="16" y2="5"/>
    <line x1="22.5" y1="4.5" x2="20.5" y2="6.5"/>
    <line x1="27.5" y1="9.5" x2="24.5" y2="9.5"/>
    <line x1="27.5" y1="22.5" x2="24.5" y2="22.5"/>
    <line x1="22.5" y1="27.5" x2="20.5" y2="25.5"/>
    <line x1="16" y1="30" x2="16" y2="27"/>
    <line x1="9.5" y1="27.5" x2="11.5" y2="25.5"/>
    <line x1="4.5" y1="22.5" x2="7.5" y2="22.5"/>
    <line x1="4.5" y1="9.5" x2="7.5" y2="9.5"/>
    <line x1="9.5" y1="4.5" x2="11.5" y2="6.5"/>
  </g>
  
  <!-- Additional decorative elements -->
  <g fill="#FFFFFF" opacity="0.8">
    <!-- Small dots between rays -->
    <circle cx="16" cy="3.5" r="0.8"/>
    <circle cx="24.5" cy="7" r="0.8"/>
    <circle cx="28.5" cy="16" r="0.8"/>
    <circle cx="24.5" cy="25" r="0.8"/>
    <circle cx="16" cy="28.5" r="0.8"/>
    <circle cx="7.5" cy="25" r="0.8"/>
    <circle cx="3.5" cy="16" r="0.8"/>
    <circle cx="7.5" cy="7" r="0.8"/>
  </g>
</svg> 
